<svg xmlns="http://www.w3.org/2000/svg" width="301.1" height="102.717" viewBox="0 0 301.1 102.717">
  <g id="maml-logo" transform="translate(-48.95 -90.368)">
    <path id="Path_2" data-name="Path 2" d="M3.97,0H11.6V-26.12h.3L22.86-5.31h5.42L40-26.12h.29V0h7.87V-40.82H40.17L26.06-14.75h-.23L11.84-40.82H3.97ZM77.03-40.82H67.06L52.42,0h8.51L63.5-7.58H81.22L83.97,0h9.09ZM65.54-13.7l6.24-18.66h.58L79.07-13.7ZM97.32,0h7.64V-26.12h.29L116.21-5.31h5.42l11.72-20.81h.29V0h7.88V-40.82h-7.99L119.42-14.75h-.24L105.19-40.82H97.32Zm52.07,0h29.68V-7.7H157.32V-40.82h-7.93Z" transform="translate(170.98 160.986)" fill="#194aa4"/>
    <path id="Path_1" data-name="Path 1" d="M24.6,89V57.7c0-11,19.9-19.9,19.9-19.9s19.9,8.9,19.9,19.9V89m-.1-16.2v-28c0-11-19.9-19.9-19.9-19.9S24.5,33.8,24.5,44.8v28M64.3,61.7v-28c0-11-19.9-19.9-19.9-19.9S24.5,22.7,24.5,33.7v28M2,75.9l42.5,24.5L87,75.9V26.8L44.5,2.3,2,26.8V75.9ZM75.9,20.5V82.3M13.1,20.5V82.3" transform="translate(48.95 90.376)" fill="none" stroke="#194aa4" stroke-miterlimit="10" stroke-width="4"/>
  </g>
</svg>
